<svg version="1.1" xmlns="http://www.w3.org/2000/svg" xmlns:xlink="http://www.w3.org/1999/xlink" width="96" height="96.2" viewBox="0,0,96,96.2"><defs><linearGradient x1="-116.42794" y1="91.46506" x2="-152.15724" y2="91.44926" gradientUnits="userSpaceOnUse" id="color-1"><stop offset="0" stop-color="#ee2a7b"/><stop offset="1" stop-color="#811150"/></linearGradient><linearGradient x1="-111.37566" y1="266.9409" x2="-146.65347" y2="266.95623" gradientUnits="userSpaceOnUse" id="color-2"><stop offset="0" stop-color="#ee2a7b"/><stop offset="1" stop-color="#811150"/></linearGradient><linearGradient x1="132.76647" y1="437.28599" x2="132.76647" y2="463.11206" gradientUnits="userSpaceOnUse" id="color-3"><stop offset="0" stop-color="#ee2a7b"/><stop offset="1" stop-color="#811150"/></linearGradient><linearGradient x1="345.38842" y1="447.44931" x2="345.38842" y2="474.29556" gradientUnits="userSpaceOnUse" id="color-4"><stop offset="0" stop-color="#ee2a7b"/><stop offset="1" stop-color="#811150"/></linearGradient></defs><g transform="translate(-192,-131.9)"><g data-paper-data="{&quot;isPaintingLayer&quot;:true}" fill-rule="nonzero" stroke-linecap="butt" stroke-linejoin="miter" stroke-miterlimit="10" stroke-dasharray="" stroke-dashoffset="0" style="mix-blend-mode: normal"><path d="M282.78572,180c0,23.63836 -19.15581,42.80104 -42.78572,42.80104c-23.6299,0 -42.78571,-19.16268 -42.78571,-42.80104c0,-23.63836 19.15581,-42.80104 42.78571,-42.80104c23.6299,0 42.78572,19.16268 42.78572,42.80104z" fill="#000000" stroke="none" stroke-width="NaN"/><path d="M287,180c0,26.01261 -21.04261,47.1 -47,47.1c-25.95739,0 -47,-21.08739 -47,-47.1c0,-26.01261 21.04261,-47.1 47,-47.1c25.95739,0 47,21.08739 47,47.1z" fill="none" stroke="#000000" stroke-width="2"/><path d="M228.24587,153.4303c-1.52527,0.92289 -3.99901,0.92178 -5.52318,-0.00245c-1.52527,-0.9238 -1.52346,-2.42081 0.00403,-3.34413c6.02675,-3.64293 13.91252,-8.40933 13.91252,-8.40933c1.52607,-0.92264 3.99948,-0.92155 5.52397,0.00244c0,0 9.12532,5.53132 14.00436,8.4896c1.52457,0.92398 1.52235,2.42076 -0.00403,3.34408c-1.52639,0.92289 -3.9994,0.92179 -5.52397,-0.00244c-6.01757,-3.64825 -7.33782,-4.43906 -7.33782,-4.43906c0,0 -0.02222,11.77071 -0.02729,15.95076c-0.00158,1.30601 -1.75127,2.36388 -3.90875,2.36292c-2.15715,-0.00096 -3.90503,-1.06041 -3.90353,-2.36637c0.00601,-4.98576 0.02697,-15.96359 0.02697,-15.96359c0,0 -2.35491,1.42362 -7.24328,4.37758z" fill="url(#color-1)" stroke="#ffffff" stroke-width="1.15823"/><path d="M236.09435,211.07179c0,0 -0.0207,-10.65023 -0.02663,-15.48721c-0.00148,-1.26699 1.7243,-2.29482 3.8542,-2.29575c2.13021,-0.00093 3.85779,1.02537 3.85936,2.29241c0.005,4.05531 0.02695,15.47476 0.02695,15.47476c0,0 1.30356,-0.76722 7.24509,-4.30659c1.5053,-0.89664 3.94707,-0.89771 5.45416,-0.00237c1.5071,0.89576 1.50928,2.34788 0.00398,3.24429c-4.81738,2.86999 -13.82739,8.23624 -13.82739,8.23624c-1.50522,0.89641 -3.94738,0.89748 -5.45416,0.00237c0,0 -7.78611,-4.62417 -13.73671,-8.15838c-1.50819,-0.89576 -1.50999,-2.34811 -0.00398,-3.24433c1.50491,-0.89664 3.94738,-0.89771 5.45338,-0.00237c4.8266,2.86581 7.15175,4.24694 7.15175,4.24694z" fill="url(#color-2)" stroke="#ffffff" stroke-width="1.15823"/><path d="M215.95276,188.09339c1.2429,1.10171 1.2429,2.88978 0,3.99234c-1.24232,1.10331 -3.25697,1.10331 -4.50045,0c-4.90611,-4.35314 -11.32538,-10.04904 -11.32538,-10.04904c-1.24257,-1.10228 -1.24257,-2.89006 0,-3.99286c0,0 7.43856,-6.60081 11.41676,-10.13006c1.24257,-1.10279 3.25697,-1.10251 4.50045,0c1.24283,1.10251 1.24283,2.89006 0,3.99286c-4.90617,4.35285 -5.96966,5.30778 -5.96966,5.30778c0,0 15.84078,0.00583 21.46613,0.00583c1.75759,0 3.18228,1.26386 3.18228,2.82334c0,1.55919 -1.42469,2.82357 -3.18228,2.82357c-6.70971,0 -21.4834,-0.00555 -21.4834,-0.00555c0,0 1.91728,1.70093 5.89555,5.23179z" fill="url(#color-3)" stroke="#ffffff" stroke-width="1.15823"/><path d="M269.53669,182.97464c0,0 -14.49862,0.00577 -21.08342,0.00577c-1.72487,0 -3.12303,-1.31432 -3.12303,-2.9351c0,-1.62108 1.39816,-2.93487 3.12303,-2.93487c5.52061,0 21.06647,-0.00606 21.06647,-0.00606c0,0 -1.04369,-0.99265 -5.85852,-5.51745c-1.21969,-1.14636 -1.21969,-3.00453 0,-4.15058c1.22032,-1.14606 3.19722,-1.14636 4.41666,0c3.90414,3.66867 11.2042,10.53022 11.2042,10.53022c1.21944,1.14636 1.21944,3.00476 0,4.15058c0,0 -6.29976,5.92091 -11.11453,10.446c-1.22032,1.14689 -3.19747,1.14689 -4.41666,0c-1.21976,-1.14612 -1.21976,-3.00482 0,-4.15005c3.9042,-3.67034 5.78579,-5.43846 5.78579,-5.43846z" fill="url(#color-4)" stroke="#ffffff" stroke-width="1.15823"/></g></g></svg>